<mxfile host="app.diagrams.net" modified="2023-04-03T20:34:11.316Z" agent="Mozilla/5.0 (Macintosh; Intel Mac OS X 10_15_7) AppleWebKit/605.1.15 (KHTML, like Gecko) Version/16.3.1 Safari/605.1.15" version="21.1.1" etag="yo3EBw1Z7cuRxxXDYzB_" type="github">
  <diagram name="Page-1" id="xfichYEwxPBEDa0aDdPm">
    <mxGraphModel>
      <root>
        <mxCell id="0" />
        <mxCell id="1" parent="0" />
      </root>
    </mxGraphModel>
  </diagram>
</mxfile>
